<svg xmlns="http://www.w3.org/2000/svg" width="340" height="478" viewBox="0 0 340 478" role="img" aria-labelledby="tlnt tlnd">
<title id="tlnt">Telemetry: GitHub activity, last 12 months</title>
<desc id="tlnd">1,283 contributions in the last 12 months, 68% of them in private repos; weekly contributions peaked at 235; contributions per year: 2023: 20, 2024: 46, 2025: 405, last 12 months: 1,283 (×28 vs 2024); active in 50 of the last 52 weeks; updated 2026-10-08 from the GitHub GraphQL API.</desc>
<style>
text{font-family:ui-monospace, SFMono-Regular, 'SF Mono', Menlo, Consolas, 'Liberation Mono', 'DejaVu Sans Mono', monospace;}
.live{transform-box:fill-box;transform-origin:center;animation:ping 2.4s ease-out infinite;}
@keyframes ping{0%{transform:scale(1);opacity:.9}70%,100%{transform:scale(3.4);opacity:0}}
@media (prefers-reduced-motion:reduce){.live{animation:none;opacity:0}}
</style>
<defs><linearGradient id="tlnfill" x1="0" x2="0" y1="0" y2="1"><stop offset="0" stop-color="#087f6d" stop-opacity=".20"/><stop offset="1" stop-color="#087f6d" stop-opacity=".02"/></linearGradient></defs>
<rect x=".5" y=".5" width="339" height="477" rx="9.5" fill="#f6f8fa" stroke="#d0d7de"/>
<rect x=".5" y=".5" width="339" height="28" rx="9.5" fill="#eef1f4"/><rect x=".5" y="18.5" width="339" height="10" fill="#eef1f4"/><path d="M.5 28.5H339.5" stroke="#d0d7de"/><circle cx="18" cy="14.0" r="4" fill="#afb8c1"/><circle cx="32" cy="14.0" r="4" fill="#afb8c1"/><circle cx="46" cy="14.0" r="4" fill="#afb8c1"/><text x="170.0" y="17.5" text-anchor="middle" font-size="10" fill="#59636e">~/GabeMed</text>
<text x="16" y="58" font-size="13" fill="#1f2328"><tspan fill="#087f6d">$</tspan> gh telemetry --window 12mo</text>
<text x="324" y="58" font-size="10" fill="#59636e" text-anchor="end">2026-10-08</text>
<text x="16" y="96" font-size="13" fill="#1f2328"><tspan fill="#087f6d" font-size="28" font-weight="600">1,283</tspan><tspan dx="7.8">contributions</tspan></text>
<text x="16" y="118" font-size="13" fill="#1f2328"><tspan fill="#087f6d" font-weight="600">68%</tspan> in private repos</text>
<g font-size="10" fill="#59636e" letter-spacing=".04em"><text x="14" y="144">contributions / week</text><text x="326" y="144" text-anchor="end">100/div · 4 wk/div</text></g>
<path d="M38 152V248M62 152V248M86 152V248M110 152V248M134 152V248M158 152V248M182 152V248M206 152V248M230 152V248M254 152V248M278 152V248M302 152V248M14 176H326M14 200H326M14 224H326" stroke="#dbe1e7" stroke-width="1"/><path d="M20.0 245V248M26.0 245V248M32.0 245V248M38.0 245V248M44.0 245V248M50.0 245V248M56.0 245V248M62.0 245V248M68.0 245V248M74.0 245V248M80.0 245V248M86.0 245V248M92.0 245V248M98.0 245V248M104.0 245V248M110.0 245V248M116.0 245V248M122.0 245V248M128.0 245V248M134.0 245V248M140.0 245V248M146.0 245V248M152.0 245V248M158.0 245V248M164.0 245V248M170.0 245V248M176.0 245V248M182.0 245V248M188.0 245V248M194.0 245V248M200.0 245V248M206.0 245V248M212.0 245V248M218.0 245V248M224.0 245V248M230.0 245V248M236.0 245V248M242.0 245V248M248.0 245V248M254.0 245V248M260.0 245V248M266.0 245V248M272.0 245V248M278.0 245V248M284.0 245V248M290.0 245V248M296.0 245V248M302.0 245V248M308.0 245V248M314.0 245V248M320.0 245V248" stroke="#c5cdd5" stroke-width="1"/><rect x="14" y="152" width="312" height="96" fill="none" stroke="#c5cdd5" stroke-width="1"/><path d="M17.0 242.7 L23.0 244.9 L29.0 246.8 L35.0 246.6 L41.0 246.6 L47.0 246.3 L53.0 247.0 L59.0 246.6 L65.0 247.3 L71.0 247.0 L77.0 248.0 L83.0 248.0 L89.0 247.5 L95.0 247.3 L101.0 247.5 L107.0 246.6 L113.0 245.1 L119.0 243.4 L125.0 240.6 L131.0 244.6 L137.0 246.1 L143.0 243.4 L149.0 246.3 L155.0 245.8 L161.0 246.8 L167.0 246.3 L173.0 244.9 L179.0 232.2 L185.0 241.5 L191.0 242.2 L197.0 245.4 L203.0 245.1 L209.0 242.0 L215.0 247.0 L221.0 244.4 L227.0 246.3 L233.0 245.1 L239.0 241.8 L245.0 245.1 L251.0 236.7 L257.0 229.8 L263.0 237.7 L269.0 232.6 L275.0 235.8 L281.0 233.8 L287.0 234.1 L293.0 239.6 L299.0 245.4 L305.0 237.2 L311.0 232.4 L317.0 191.6 L323.0 243.4 L323.0 248 L17.0 248Z" fill="url(#tlnfill)"/><path d="M14 191.6H326" stroke="#59636e" stroke-opacity=".6" stroke-width="1" stroke-dasharray="2 3"/><text x="20" y="204.6" font-size="10" fill="#59636e" text-anchor="start">max 235/wk</text><path d="M17.0 242.7 L23.0 244.9 L29.0 246.8 L35.0 246.6 L41.0 246.6 L47.0 246.3 L53.0 247.0 L59.0 246.6 L65.0 247.3 L71.0 247.0 L77.0 248.0 L83.0 248.0 L89.0 247.5 L95.0 247.3 L101.0 247.5 L107.0 246.6 L113.0 245.1 L119.0 243.4 L125.0 240.6 L131.0 244.6 L137.0 246.1 L143.0 243.4 L149.0 246.3 L155.0 245.8 L161.0 246.8 L167.0 246.3 L173.0 244.9 L179.0 232.2 L185.0 241.5 L191.0 242.2 L197.0 245.4 L203.0 245.1 L209.0 242.0 L215.0 247.0 L221.0 244.4 L227.0 246.3 L233.0 245.1 L239.0 241.8 L245.0 245.1 L251.0 236.7 L257.0 229.8 L263.0 237.7 L269.0 232.6 L275.0 235.8 L281.0 233.8 L287.0 234.1 L293.0 239.6 L299.0 245.4 L305.0 237.2 L311.0 232.4 L317.0 191.6 L323.0 243.4" fill="none" stroke="#087f6d" stroke-width="1.75" stroke-linejoin="round" stroke-linecap="round"/><circle class="live" cx="323.0" cy="243.4" r="2.75" fill="none" stroke="#087f6d" stroke-width="1.25"/><circle cx="323.0" cy="243.4" r="2.75" fill="#087f6d"/><path d="M32.9 248V252M85.1 248V252M135.7 248V252M188.0 248V252M240.3 248V252M293.4 248V252" stroke="#c5cdd5" stroke-width="1"/><text x="35.9" y="263" font-size="10" fill="#59636e">Nov</text><text x="88.1" y="263" font-size="10" fill="#1f2328">2026</text><text x="138.7" y="263" font-size="10" fill="#59636e">Mar</text><text x="191.0" y="263" font-size="10" fill="#59636e">May</text><text x="243.3" y="263" font-size="10" fill="#59636e">Jul</text><text x="296.4" y="263" font-size="10" fill="#59636e">Sep</text>
<path d="M.5 280.5H339.5" stroke="#d0d7de"/>
<text x="16" y="302" font-size="10" fill="#59636e" letter-spacing=".1em">CONTRIBUTIONS / YEAR</text><text x="324" y="302" font-size="10" fill="#afb8c1" text-anchor="end">01</text><text x="16" y="336" font-size="24"><tspan fill="#087f6d" font-weight="600">×28</tspan><tspan fill="#59636e" font-size="11.5" dx="6.9">vs 2024</tspan></text><text x="16" y="357" font-size="11" fill="#1f2328" fill-opacity=".82">trailing 12 mo</text>
<rect x="205.0" y="349.0" width="22" height="1.0" fill="#8c959f" fill-opacity=".55"/><text x="216.0" y="345.0" font-size="9.5" text-anchor="middle" fill="#1f2328" fill-opacity=".82">20</text><text x="216.0" y="363.5" font-size="9.5" text-anchor="middle" fill="#59636e">2023</text><rect x="236.0" y="349.0" width="22" height="1.0" fill="#8c959f" fill-opacity=".55"/><text x="247.0" y="345.0" font-size="9.5" text-anchor="middle" fill="#1f2328" fill-opacity=".82">46</text><text x="247.0" y="363.5" font-size="9.5" text-anchor="middle" fill="#59636e">2024</text><rect x="267.0" y="341.2" width="22" height="8.8" fill="#8c959f" fill-opacity=".55"/><text x="278.0" y="337.2" font-size="9.5" text-anchor="middle" fill="#1f2328" fill-opacity=".82">405</text><text x="278.0" y="363.5" font-size="9.5" text-anchor="middle" fill="#59636e">2025</text><rect x="298.0" y="322.0" width="22" height="28.0" fill="#087f6d"/><text x="309.0" y="318.0" font-size="9.5" text-anchor="middle" fill="#1f2328" fill-opacity=".82">1,283</text><text x="309.0" y="363.5" font-size="9.5" text-anchor="middle" fill="#087f6d">12 mo</text><path d="M201.0 350.5H324" stroke="#c5cdd5"/>
<path d="M12 374.5H328" stroke="#d0d7de"/>
<path d="M170.5 386V466" stroke="#d0d7de"/>
<text x="16" y="406" font-size="10" fill="#59636e" letter-spacing=".1em">ACTIVE WEEKS</text><text x="156" y="406" font-size="10" fill="#afb8c1" text-anchor="end">02</text><text x="16" y="440" font-size="24"><tspan fill="#087f6d" font-weight="600">50</tspan><tspan fill="#59636e" font-size="11.5" dx="6.9">/ 52</tspan></text><text x="16" y="461" font-size="11" fill="#1f2328" fill-opacity=".82">in the last 12 mo</text>
<text x="184" y="406" font-size="10" fill="#59636e" letter-spacing=".1em">ACTIVE DAYS</text><text x="324" y="406" font-size="10" fill="#afb8c1" text-anchor="end">03</text><text x="184" y="440" font-size="24"><tspan fill="#087f6d" font-weight="600">203</tspan><tspan fill="#59636e" font-size="11.5" dx="6.9">/ 364</tspan></text><text x="184" y="461" font-size="11" fill="#1f2328" fill-opacity=".82">56% of days</text>
</svg>
