<svg xmlns="http://www.w3.org/2000/svg" width="860" height="412" viewBox="0 0 860 412" role="img" aria-labelledby="tlwt tlwd">
<title id="tlwt">Telemetry: GitHub activity, last 12 months</title>
<desc id="tlwd">1,029 contributions in the last 12 months, 83% of them in private repos; weekly contributions peaked at 76; contributions per year: 2023: 20, 2024: 46, 2025: 405, last 12 months: 1,029 (×22 vs 2024); 229 merged pull requests all-time; active in 50 of the last 52 weeks; updated 2026-09-30 from the GitHub GraphQL API.</desc>
<style>
text{font-family:ui-monospace, SFMono-Regular, 'SF Mono', Menlo, Consolas, 'Liberation Mono', 'DejaVu Sans Mono', monospace;}
.live{transform-box:fill-box;transform-origin:center;animation:ping 2.4s ease-out infinite;}
@keyframes ping{0%{transform:scale(1);opacity:.9}70%,100%{transform:scale(3.4);opacity:0}}
@media (prefers-reduced-motion:reduce){.live{animation:none;opacity:0}}
</style>
<defs><linearGradient id="tlwfill" x1="0" x2="0" y1="0" y2="1"><stop offset="0" stop-color="#087f6d" stop-opacity=".20"/><stop offset="1" stop-color="#087f6d" stop-opacity=".02"/></linearGradient></defs>
<rect x=".5" y=".5" width="859" height="411" rx="9.5" fill="#f6f8fa" stroke="#d0d7de"/>
<rect x=".5" y=".5" width="859" height="32" rx="9.5" fill="#eef1f4"/><rect x=".5" y="22.5" width="859" height="10" fill="#eef1f4"/><path d="M.5 32.5H859.5" stroke="#d0d7de"/><circle cx="18" cy="16.0" r="4" fill="#afb8c1"/><circle cx="32" cy="16.0" r="4" fill="#afb8c1"/><circle cx="46" cy="16.0" r="4" fill="#afb8c1"/><text x="430.0" y="19.9" text-anchor="middle" font-size="11" fill="#59636e">~/GabeMed</text>
<text x="40" y="70" font-size="15" fill="#1f2328"><tspan fill="#087f6d">$</tspan> gh telemetry --window 12mo</text>
<text x="820" y="70" font-size="11" fill="#59636e" text-anchor="end">updated 2026-09-30</text>
<text x="40" y="116" font-size="17" fill="#1f2328"><tspan fill="#087f6d" font-size="34" font-weight="600">1,029</tspan><tspan dx="10.2">contributions</tspan><tspan fill="#59636e"> · </tspan><tspan fill="#087f6d" font-weight="600">83%</tspan><tspan> in private repos</tspan></text>
<g font-size="10" fill="#59636e" letter-spacing=".04em"><text x="40" y="146">contributions / week</text><text x="820" y="146" text-anchor="end">20/div · 2 wk/div</text></g>
<path d="M70 156V276M100 156V276M130 156V276M160 156V276M190 156V276M220 156V276M250 156V276M280 156V276M310 156V276M340 156V276M370 156V276M400 156V276M430 156V276M460 156V276M490 156V276M520 156V276M550 156V276M580 156V276M610 156V276M640 156V276M670 156V276M700 156V276M730 156V276M760 156V276M790 156V276M40 186H820M40 216H820M40 246H820" stroke="#dbe1e7" stroke-width="1"/><path d="M55.0 273V276M70.0 273V276M85.0 273V276M100.0 273V276M115.0 273V276M130.0 273V276M145.0 273V276M160.0 273V276M175.0 273V276M190.0 273V276M205.0 273V276M220.0 273V276M235.0 273V276M250.0 273V276M265.0 273V276M280.0 273V276M295.0 273V276M310.0 273V276M325.0 273V276M340.0 273V276M355.0 273V276M370.0 273V276M385.0 273V276M400.0 273V276M415.0 273V276M430.0 273V276M445.0 273V276M460.0 273V276M475.0 273V276M490.0 273V276M505.0 273V276M520.0 273V276M535.0 273V276M550.0 273V276M565.0 273V276M580.0 273V276M595.0 273V276M610.0 273V276M625.0 273V276M640.0 273V276M655.0 273V276M670.0 273V276M685.0 273V276M700.0 273V276M715.0 273V276M730.0 273V276M745.0 273V276M760.0 273V276M775.0 273V276M790.0 273V276M805.0 273V276" stroke="#c5cdd5" stroke-width="1"/><rect x="40" y="156" width="780" height="120" fill="none" stroke="#c5cdd5" stroke-width="1"/><path d="M47.5 274.5 L62.5 246.0 L77.5 256.5 L92.5 267.0 L107.5 267.0 L122.5 268.5 L137.5 270.0 L152.5 264.0 L167.5 265.5 L182.5 271.5 L197.5 270.0 L212.5 276.0 L227.5 276.0 L242.5 273.0 L257.5 271.5 L272.5 273.0 L287.5 270.0 L302.5 256.5 L317.5 253.5 L332.5 226.5 L347.5 264.0 L362.5 252.0 L377.5 250.5 L392.5 261.0 L407.5 262.5 L422.5 270.0 L437.5 264.0 L452.5 267.0 L467.5 223.5 L482.5 180.0 L497.5 237.0 L512.5 264.0 L527.5 261.0 L542.5 234.0 L557.5 267.0 L572.5 255.0 L587.5 265.5 L602.5 259.5 L617.5 252.0 L632.5 244.5 L647.5 226.5 L662.5 205.5 L677.5 180.0 L692.5 190.5 L707.5 229.5 L722.5 187.5 L737.5 192.0 L752.5 219.0 L767.5 261.0 L782.5 234.0 L797.5 162.0 L812.5 190.5 L812.5 276 L47.5 276Z" fill="url(#tlwfill)"/><path d="M40 162.0H820" stroke="#59636e" stroke-opacity=".6" stroke-width="1" stroke-dasharray="2 3"/><text x="46" y="175.0" font-size="10" fill="#59636e" text-anchor="start">max 76/wk</text><path d="M47.5 274.5 L62.5 246.0 L77.5 256.5 L92.5 267.0 L107.5 267.0 L122.5 268.5 L137.5 270.0 L152.5 264.0 L167.5 265.5 L182.5 271.5 L197.5 270.0 L212.5 276.0 L227.5 276.0 L242.5 273.0 L257.5 271.5 L272.5 273.0 L287.5 270.0 L302.5 256.5 L317.5 253.5 L332.5 226.5 L347.5 264.0 L362.5 252.0 L377.5 250.5 L392.5 261.0 L407.5 262.5 L422.5 270.0 L437.5 264.0 L452.5 267.0 L467.5 223.5 L482.5 180.0 L497.5 237.0 L512.5 264.0 L527.5 261.0 L542.5 234.0 L557.5 267.0 L572.5 255.0 L587.5 265.5 L602.5 259.5 L617.5 252.0 L632.5 244.5 L647.5 226.5 L662.5 205.5 L677.5 180.0 L692.5 190.5 L707.5 229.5 L722.5 187.5 L737.5 192.0 L752.5 219.0 L767.5 261.0 L782.5 234.0 L797.5 162.0 L812.5 190.5" fill="none" stroke="#087f6d" stroke-width="1.75" stroke-linejoin="round" stroke-linecap="round"/><circle class="live" cx="812.5" cy="190.5" r="2.75" fill="none" stroke="#087f6d" stroke-width="1.25"/><circle cx="812.5" cy="190.5" r="2.75" fill="#087f6d"/><path d="M104.3 276V280M168.6 276V280M235.0 276V280M301.4 276V280M361.4 276V280M427.9 276V280M492.1 276V280M558.6 276V280M622.9 276V280M689.3 276V280M755.7 276V280" stroke="#c5cdd5" stroke-width="1"/><text x="107.3" y="291" font-size="10" fill="#59636e">Nov</text><text x="171.6" y="291" font-size="10" fill="#59636e">Dec</text><text x="238.0" y="291" font-size="10" fill="#1f2328">2026</text><text x="304.4" y="291" font-size="10" fill="#59636e">Feb</text><text x="364.4" y="291" font-size="10" fill="#59636e">Mar</text><text x="430.9" y="291" font-size="10" fill="#59636e">Apr</text><text x="495.1" y="291" font-size="10" fill="#59636e">May</text><text x="561.6" y="291" font-size="10" fill="#59636e">Jun</text><text x="625.9" y="291" font-size="10" fill="#59636e">Jul</text><text x="692.3" y="291" font-size="10" fill="#59636e">Aug</text><text x="758.7" y="291" font-size="10" fill="#59636e">Sep</text>
<path d="M.5 306.5H859.5" stroke="#d0d7de"/>
<text x="40" y="332" font-size="10.5" fill="#59636e" letter-spacing=".1em">CONTRIBUTIONS / YEAR</text><text x="408" y="332" font-size="10.5" fill="#afb8c1" text-anchor="end">01</text><text x="40" y="370" font-size="30"><tspan fill="#087f6d" font-weight="600">×22</tspan><tspan fill="#59636e" font-size="14" dx="8.4">vs 2024</tspan></text><text x="40" y="393" font-size="12" fill="#1f2328" fill-opacity=".82">trailing 12 mo, all repos</text>
<rect x="246.0" y="383.0" width="30" height="1.0" fill="#8c959f" fill-opacity=".55"/><text x="261.0" y="379.0" font-size="10" text-anchor="middle" fill="#1f2328" fill-opacity=".82">20</text><text x="261.0" y="398" font-size="10" text-anchor="middle" fill="#59636e">2023</text><rect x="290.0" y="382.6" width="30" height="1.4" fill="#8c959f" fill-opacity=".55"/><text x="305.0" y="378.6" font-size="10" text-anchor="middle" fill="#1f2328" fill-opacity=".82">46</text><text x="305.0" y="398" font-size="10" text-anchor="middle" fill="#59636e">2024</text><rect x="334.0" y="371.4" width="30" height="12.6" fill="#8c959f" fill-opacity=".55"/><text x="349.0" y="367.4" font-size="10" text-anchor="middle" fill="#1f2328" fill-opacity=".82">405</text><text x="349.0" y="398" font-size="10" text-anchor="middle" fill="#59636e">2025</text><rect x="378.0" y="352.0" width="30" height="32.0" fill="#087f6d"/><text x="393.0" y="348.0" font-size="10" text-anchor="middle" fill="#1f2328" fill-opacity=".82">1,029</text><text x="393.0" y="398" font-size="10" text-anchor="middle" fill="#087f6d">12 mo</text><path d="M242.0 384.5H412" stroke="#c5cdd5"/>
<path d="M430.5 320V398" stroke="#d0d7de"/>
<text x="450" y="332" font-size="10.5" fill="#59636e" letter-spacing=".1em">MERGED PRS</text><text x="605" y="332" font-size="10.5" fill="#afb8c1" text-anchor="end">02</text><text x="450" y="370" font-size="30"><tspan fill="#087f6d" font-weight="600">229</tspan><tspan fill="#59636e" font-size="14" dx="8.4">all-time</tspan></text><text x="450" y="393" font-size="12" fill="#1f2328" fill-opacity=".82">91% in private repos</text>
<path d="M625.5 320V398" stroke="#d0d7de"/>
<text x="645" y="332" font-size="10.5" fill="#59636e" letter-spacing=".1em">ACTIVE WEEKS</text><text x="820" y="332" font-size="10.5" fill="#afb8c1" text-anchor="end">03</text><text x="645" y="370" font-size="30"><tspan fill="#087f6d" font-weight="600">50</tspan><tspan fill="#59636e" font-size="14" dx="8.4">/ 52</tspan></text><text x="645" y="393" font-size="12" fill="#1f2328" fill-opacity=".82">in the last 12 mo</text>
</svg>
