<svg xmlns="http://www.w3.org/2000/svg" width="340" height="478" viewBox="0 0 340 478" role="img" aria-labelledby="tdnt tdnd">
<title id="tdnt">Telemetry: GitHub activity, last 12 months</title>
<desc id="tdnd">1,028 contributions in the last 12 months, 84% of them in private repos; weekly contributions peaked at 76; contributions per year: 2023: 20, 2024: 46, 2025: 405, last 12 months: 1,028 (×22 vs 2024); 229 merged pull requests all-time; active in 50 of the last 52 weeks; updated 2026-09-30 from the GitHub GraphQL API.</desc>
<style>
text{font-family:ui-monospace, SFMono-Regular, 'SF Mono', Menlo, Consolas, 'Liberation Mono', 'DejaVu Sans Mono', monospace;}
.live{transform-box:fill-box;transform-origin:center;animation:ping 2.4s ease-out infinite;}
@keyframes ping{0%{transform:scale(1);opacity:.9}70%,100%{transform:scale(3.4);opacity:0}}
@media (prefers-reduced-motion:reduce){.live{animation:none;opacity:0}}
</style>
<defs><linearGradient id="tdnfill" x1="0" x2="0" y1="0" y2="1"><stop offset="0" stop-color="#56d4bb" stop-opacity=".30"/><stop offset="1" stop-color="#56d4bb" stop-opacity=".02"/></linearGradient></defs>
<rect x=".5" y=".5" width="339" height="477" rx="9.5" fill="#010409" stroke="#30363d"/>
<rect x=".5" y=".5" width="339" height="28" rx="9.5" fill="#0d1117"/><rect x=".5" y="18.5" width="339" height="10" fill="#0d1117"/><path d="M.5 28.5H339.5" stroke="#30363d"/><circle cx="18" cy="14.0" r="4" fill="#3d444d"/><circle cx="32" cy="14.0" r="4" fill="#3d444d"/><circle cx="46" cy="14.0" r="4" fill="#3d444d"/><text x="170.0" y="17.5" text-anchor="middle" font-size="10" fill="#8b949e">~/GabeMed</text>
<text x="16" y="58" font-size="13" fill="#e6edf3"><tspan fill="#56d4bb">$</tspan> gh telemetry --window 12mo</text>
<text x="324" y="58" font-size="10" fill="#8b949e" text-anchor="end">2026-09-30</text>
<text x="16" y="96" font-size="13" fill="#e6edf3"><tspan fill="#56d4bb" font-size="28" font-weight="600">1,028</tspan><tspan dx="7.8">contributions</tspan></text>
<text x="16" y="118" font-size="13" fill="#e6edf3"><tspan fill="#56d4bb" font-weight="600">84%</tspan> in private repos</text>
<g font-size="10" fill="#8b949e" letter-spacing=".04em"><text x="14" y="144">contributions / week</text><text x="326" y="144" text-anchor="end">20/div · 4 wk/div</text></g>
<path d="M38 152V248M62 152V248M86 152V248M110 152V248M134 152V248M158 152V248M182 152V248M206 152V248M230 152V248M254 152V248M278 152V248M302 152V248M14 176H326M14 200H326M14 224H326" stroke="#1a2029" stroke-width="1"/><path d="M20.0 245V248M26.0 245V248M32.0 245V248M38.0 245V248M44.0 245V248M50.0 245V248M56.0 245V248M62.0 245V248M68.0 245V248M74.0 245V248M80.0 245V248M86.0 245V248M92.0 245V248M98.0 245V248M104.0 245V248M110.0 245V248M116.0 245V248M122.0 245V248M128.0 245V248M134.0 245V248M140.0 245V248M146.0 245V248M152.0 245V248M158.0 245V248M164.0 245V248M170.0 245V248M176.0 245V248M182.0 245V248M188.0 245V248M194.0 245V248M200.0 245V248M206.0 245V248M212.0 245V248M218.0 245V248M224.0 245V248M230.0 245V248M236.0 245V248M242.0 245V248M248.0 245V248M254.0 245V248M260.0 245V248M266.0 245V248M272.0 245V248M278.0 245V248M284.0 245V248M290.0 245V248M296.0 245V248M302.0 245V248M308.0 245V248M314.0 245V248M320.0 245V248" stroke="#2a313b" stroke-width="1"/><rect x="14" y="152" width="312" height="96" fill="none" stroke="#2a313b" stroke-width="1"/><path d="M17.0 246.8 L23.0 224.0 L29.0 232.4 L35.0 240.8 L41.0 240.8 L47.0 242.0 L53.0 243.2 L59.0 238.4 L65.0 239.6 L71.0 244.4 L77.0 243.2 L83.0 248.0 L89.0 248.0 L95.0 245.6 L101.0 244.4 L107.0 245.6 L113.0 243.2 L119.0 232.4 L125.0 230.0 L131.0 208.4 L137.0 238.4 L143.0 228.8 L149.0 227.6 L155.0 236.0 L161.0 237.2 L167.0 243.2 L173.0 238.4 L179.0 240.8 L185.0 206.0 L191.0 171.2 L197.0 216.8 L203.0 238.4 L209.0 236.0 L215.0 214.4 L221.0 240.8 L227.0 231.2 L233.0 239.6 L239.0 234.8 L245.0 228.8 L251.0 222.8 L257.0 208.4 L263.0 191.6 L269.0 171.2 L275.0 179.6 L281.0 210.8 L287.0 177.2 L293.0 180.8 L299.0 202.4 L305.0 236.0 L311.0 214.4 L317.0 156.8 L323.0 180.8 L323.0 248 L17.0 248Z" fill="url(#tdnfill)"/><path d="M14 156.8H326" stroke="#8b949e" stroke-opacity=".6" stroke-width="1" stroke-dasharray="2 3"/><text x="20" y="169.8" font-size="10" fill="#8b949e" text-anchor="start">max 76/wk</text><path d="M17.0 246.8 L23.0 224.0 L29.0 232.4 L35.0 240.8 L41.0 240.8 L47.0 242.0 L53.0 243.2 L59.0 238.4 L65.0 239.6 L71.0 244.4 L77.0 243.2 L83.0 248.0 L89.0 248.0 L95.0 245.6 L101.0 244.4 L107.0 245.6 L113.0 243.2 L119.0 232.4 L125.0 230.0 L131.0 208.4 L137.0 238.4 L143.0 228.8 L149.0 227.6 L155.0 236.0 L161.0 237.2 L167.0 243.2 L173.0 238.4 L179.0 240.8 L185.0 206.0 L191.0 171.2 L197.0 216.8 L203.0 238.4 L209.0 236.0 L215.0 214.4 L221.0 240.8 L227.0 231.2 L233.0 239.6 L239.0 234.8 L245.0 228.8 L251.0 222.8 L257.0 208.4 L263.0 191.6 L269.0 171.2 L275.0 179.6 L281.0 210.8 L287.0 177.2 L293.0 180.8 L299.0 202.4 L305.0 236.0 L311.0 214.4 L317.0 156.8 L323.0 180.8" fill="none" stroke="#56d4bb" stroke-width="1.75" stroke-linejoin="round" stroke-linecap="round"/><circle class="live" cx="323.0" cy="180.8" r="2.75" fill="none" stroke="#56d4bb" stroke-width="1.25"/><circle cx="323.0" cy="180.8" r="2.75" fill="#56d4bb"/><path d="M39.7 248V252M92.0 248V252M142.6 248V252M194.9 248V252M247.1 248V252M300.3 248V252" stroke="#2a313b" stroke-width="1"/><text x="42.7" y="263" font-size="10" fill="#8b949e">Nov</text><text x="95.0" y="263" font-size="10" fill="#e6edf3">2026</text><text x="145.6" y="263" font-size="10" fill="#8b949e">Mar</text><text x="197.9" y="263" font-size="10" fill="#8b949e">May</text><text x="250.1" y="263" font-size="10" fill="#8b949e">Jul</text><text x="303.3" y="263" font-size="10" fill="#8b949e">Sep</text>
<path d="M.5 280.5H339.5" stroke="#30363d"/>
<text x="16" y="302" font-size="10" fill="#8b949e" letter-spacing=".1em">CONTRIBUTIONS / YEAR</text><text x="324" y="302" font-size="10" fill="#3d444d" text-anchor="end">01</text><text x="16" y="336" font-size="24"><tspan fill="#56d4bb" font-weight="600">×22</tspan><tspan fill="#8b949e" font-size="11.5" dx="6.9">vs 2024</tspan></text><text x="16" y="357" font-size="11" fill="#e6edf3" fill-opacity=".82">trailing 12 mo</text>
<rect x="205.0" y="349.0" width="22" height="1.0" fill="#6e7681" fill-opacity=".55"/><text x="216.0" y="345.0" font-size="9.5" text-anchor="middle" fill="#e6edf3" fill-opacity=".82">20</text><text x="216.0" y="363.5" font-size="9.5" text-anchor="middle" fill="#8b949e">2023</text><rect x="236.0" y="348.7" width="22" height="1.3" fill="#6e7681" fill-opacity=".55"/><text x="247.0" y="344.7" font-size="9.5" text-anchor="middle" fill="#e6edf3" fill-opacity=".82">46</text><text x="247.0" y="363.5" font-size="9.5" text-anchor="middle" fill="#8b949e">2024</text><rect x="267.0" y="339.0" width="22" height="11.0" fill="#6e7681" fill-opacity=".55"/><text x="278.0" y="335.0" font-size="9.5" text-anchor="middle" fill="#e6edf3" fill-opacity=".82">405</text><text x="278.0" y="363.5" font-size="9.5" text-anchor="middle" fill="#8b949e">2025</text><rect x="298.0" y="322.0" width="22" height="28.0" fill="#56d4bb"/><text x="309.0" y="318.0" font-size="9.5" text-anchor="middle" fill="#e6edf3" fill-opacity=".82">1,028</text><text x="309.0" y="363.5" font-size="9.5" text-anchor="middle" fill="#56d4bb">12 mo</text><path d="M201.0 350.5H324" stroke="#2a313b"/>
<path d="M12 374.5H328" stroke="#30363d"/>
<path d="M170.5 386V466" stroke="#30363d"/>
<text x="16" y="406" font-size="10" fill="#8b949e" letter-spacing=".1em">MERGED PRS</text><text x="156" y="406" font-size="10" fill="#3d444d" text-anchor="end">02</text><text x="16" y="440" font-size="24"><tspan fill="#56d4bb" font-weight="600">229</tspan><tspan fill="#8b949e" font-size="11.5" dx="6.9">all-time</tspan></text><text x="16" y="461" font-size="11" fill="#e6edf3" fill-opacity=".82">91% in private repos</text>
<text x="184" y="406" font-size="10" fill="#8b949e" letter-spacing=".1em">ACTIVE WEEKS</text><text x="324" y="406" font-size="10" fill="#3d444d" text-anchor="end">03</text><text x="184" y="440" font-size="24"><tspan fill="#56d4bb" font-weight="600">50</tspan><tspan fill="#8b949e" font-size="11.5" dx="6.9">/ 52</tspan></text><text x="184" y="461" font-size="11" fill="#e6edf3" fill-opacity=".82">in the last 12 mo</text>
</svg>
