<svg xmlns="http://www.w3.org/2000/svg" width="860" height="244" viewBox="0 0 860 244" role="img" aria-labelledby="hdwt hdwd">
<title id="hdwt">Gabriel Medeiros</title>
<desc id="hdwd">Computer Engineering @ IME · #2, civilian track · Founding engineer ×2 (Baze, Camada AI) · ML research @ Purdue</desc>
<style>
text{font-family:ui-monospace, SFMono-Regular, 'SF Mono', Menlo, Consolas, 'Liberation Mono', 'DejaVu Sans Mono', monospace;}
.beam{animation:sweep 6s linear infinite;}
.cur{animation:blink 1.1s steps(1,end) infinite;}
@keyframes sweep{from{transform:translateX(0)}to{transform:translateX(324px)}}
@keyframes blink{0%{opacity:1}60%{opacity:0}}
@media (prefers-reduced-motion:reduce){.beam,.cur{animation:none}.beam{opacity:0}}
</style>
<defs><clipPath id="hdwclip"><rect x="548" y="72" width="280" height="140"/></clipPath><linearGradient id="hdwtrail" x1="0" x2="1" y1="0" y2="0"><stop offset="0" stop-color="#56d4bb" stop-opacity="0"/><stop offset="1" stop-color="#56d4bb" stop-opacity=".16"/></linearGradient></defs>
<rect x=".5" y=".5" width="859" height="243" rx="9.5" fill="#010409" stroke="#30363d"/>
<rect x=".5" y=".5" width="859" height="32" rx="9.5" fill="#0d1117"/><rect x=".5" y="22.5" width="859" height="10" fill="#0d1117"/><path d="M.5 32.5H859.5" stroke="#30363d"/><circle cx="18" cy="16.0" r="4" fill="#3d444d"/><circle cx="32" cy="16.0" r="4" fill="#3d444d"/><circle cx="46" cy="16.0" r="4" fill="#3d444d"/><text x="430.0" y="19.9" text-anchor="middle" font-size="11" fill="#8b949e">~/GabeMed</text>
<path d="M.5 32.5H859.5" stroke="#30363d"/>
<text x="36" y="76" font-size="15" fill="#e6edf3"><tspan fill="#56d4bb">$</tspan> whoami</text>
<text x="36" y="128" font-size="42" font-weight="600" fill="#e6edf3" textLength="404.5" lengthAdjust="spacing">Gabriel Medeiros</text>
<rect class="cur" x="448.1" y="96.9" width="19.3" height="36.1" fill="#56d4bb"/>
<text x="36" y="168" font-size="17" fill="#e6edf3">Computer Engineering <tspan fill="#8b949e">@</tspan> IME <tspan fill="#8b949e">·</tspan> #2, civilian track</text>
<text x="36" y="194" font-size="17" fill="#e6edf3">Founding engineer ×2 (Baze, Camada AI)</text>
<text x="36" y="220" font-size="17" fill="#e6edf3">ML research <tspan fill="#8b949e">@</tspan> Purdue</text>
<g class="scope"><path d="M583 72V212M618 72V212M653 72V212M688 72V212M723 72V212M758 72V212M793 72V212M548 107H828M548 142H828M548 177H828" stroke="#1a2029" stroke-width="1"/><path d="M548 142H828M688 72V212M555.0 139V145M562.0 139V145M569.0 139V145M576.0 139V145M583.0 139V145M590.0 139V145M597.0 139V145M604.0 139V145M611.0 139V145M618.0 139V145M625.0 139V145M632.0 139V145M639.0 139V145M646.0 139V145M653.0 139V145M660.0 139V145M667.0 139V145M674.0 139V145M681.0 139V145M688.0 139V145M695.0 139V145M702.0 139V145M709.0 139V145M716.0 139V145M723.0 139V145M730.0 139V145M737.0 139V145M744.0 139V145M751.0 139V145M758.0 139V145M765.0 139V145M772.0 139V145M779.0 139V145M786.0 139V145M793.0 139V145M800.0 139V145M807.0 139V145M814.0 139V145M821.0 139V145M685 79.0H691M685 86.0H691M685 93.0H691M685 100.0H691M685 107.0H691M685 114.0H691M685 121.0H691M685 128.0H691M685 135.0H691M685 142.0H691M685 149.0H691M685 156.0H691M685 163.0H691M685 170.0H691M685 177.0H691M685 184.0H691M685 191.0H691M685 198.0H691M685 205.0H691" stroke="#2a313b" stroke-width="1"/><rect x="548" y="72" width="280" height="140" fill="none" stroke="#2a313b" stroke-width="1"/><g clip-path="url(#hdwclip)"><path d="M548.0 189.9 L550.0 186.1 L552.0 189.8 L554.0 190.2 L556.0 193.3 L558.0 189.7 L560.0 183.2 L562.0 186.6 L564.0 183.1 L566.0 185.7 L568.0 182.9 L570.0 181.2 L572.0 187.0 L574.0 170.6 L576.0 167.9 L578.0 163.2 L580.0 169.0 L582.0 164.1 L584.0 154.6 L586.0 147.1 L588.0 138.0 L590.0 134.7 L592.0 127.0 L594.0 128.1 L596.0 119.1 L598.0 114.7 L600.0 116.4 L602.0 101.6 L604.0 104.7 L606.0 99.4 L608.0 106.8 L610.0 106.2 L612.0 103.5 L614.0 102.1 L616.0 98.7 L618.0 101.2 L620.0 105.7 L622.0 109.6 L624.0 109.1 L626.0 102.4 L628.0 114.6 L630.0 111.7 L632.0 113.3 L634.0 125.4 L636.0 120.3 L638.0 116.7 L640.0 135.8 L642.0 129.9 L644.0 131.3 L646.0 137.1 L648.0 132.7 L650.0 137.4 L652.0 146.1 L654.0 136.2 L656.0 138.3 L658.0 138.0 L660.0 136.3 L662.0 142.2 L664.0 143.8 L666.0 150.9 L668.0 141.3 L670.0 147.1 L672.0 145.8 L674.0 149.2 L676.0 146.9 L678.0 143.8 L680.0 133.7 L682.0 149.0 L684.0 144.9 L686.0 135.2 L688.0 128.0 L690.0 131.0 L692.0 142.0 L694.0 143.8 L696.0 128.4 L698.0 132.7 L700.0 133.5 L702.0 122.2 L704.0 120.7 L706.0 124.6 L708.0 123.6 L710.0 122.1 L712.0 116.0 L714.0 120.5 L716.0 120.9 L718.0 120.7 L720.0 131.2 L722.0 117.2 L724.0 119.1 L726.0 121.5 L728.0 134.3 L730.0 128.2 L732.0 121.4 L734.0 135.1 L736.0 127.6 L738.0 122.3 L740.0 134.5 L742.0 120.6 L744.0 126.5 L746.0 130.6 L748.0 128.8 L750.0 127.8 L752.0 130.9 L754.0 126.3 L756.0 135.7 L758.0 134.8 L760.0 127.9 L762.0 133.2 L764.0 137.9 L766.0 129.0 L768.0 126.5 L770.0 136.0 L772.0 140.6 L774.0 134.3 L776.0 134.3 L778.0 134.9 L780.0 126.2 L782.0 138.0 L784.0 126.4 L786.0 138.7 L788.0 136.0 L790.0 128.7 L792.0 125.9 L794.0 126.9 L796.0 129.2 L798.0 129.9 L800.0 129.5 L802.0 127.2 L804.0 130.6 L806.0 128.2 L808.0 126.5 L810.0 129.1 L812.0 125.2 L814.0 126.1 L816.0 118.8 L818.0 127.1 L820.0 130.8 L822.0 130.5 L824.0 128.7 L826.0 124.1 L828.0 130.4" fill="none" stroke="#6e7681" stroke-width="1" stroke-opacity=".55" stroke-linejoin="round"/><path d="M548.0 198.8 L550.0 199.2 L552.0 199.8 L554.0 200.1 L556.0 200.0 L558.0 199.3 L560.0 198.2 L562.0 197.0 L564.0 195.5 L566.0 193.6 L568.0 191.2 L570.0 188.1 L572.0 184.5 L574.0 179.9 L576.0 174.9 L578.0 169.6 L580.0 164.1 L582.0 157.9 L584.0 151.1 L586.0 143.9 L588.0 136.6 L590.0 129.6 L592.0 122.7 L594.0 116.3 L596.0 110.1 L598.0 104.5 L600.0 99.5 L602.0 95.0 L604.0 91.5 L606.0 88.8 L608.0 87.1 L610.0 85.9 L612.0 85.3 L614.0 85.3 L616.0 85.9 L618.0 87.3 L620.0 89.3 L622.0 91.7 L624.0 94.4 L626.0 97.4 L628.0 101.0 L630.0 104.8 L632.0 108.8 L634.0 113.1 L636.0 117.1 L638.0 121.1 L640.0 125.4 L642.0 129.2 L644.0 132.7 L646.0 136.0 L648.0 138.9 L650.0 141.6 L652.0 144.0 L654.0 145.8 L656.0 147.4 L658.0 148.9 L660.0 150.3 L662.0 151.6 L664.0 152.8 L666.0 153.6 L668.0 153.9 L670.0 154.0 L672.0 153.7 L674.0 153.1 L676.0 152.0 L678.0 150.5 L680.0 148.8 L682.0 147.3 L684.0 145.2 L686.0 142.8 L688.0 140.4 L690.0 138.4 L692.0 136.6 L694.0 134.5 L696.0 131.9 L698.0 129.4 L700.0 127.0 L702.0 124.5 L704.0 122.3 L706.0 120.6 L708.0 119.2 L710.0 118.0 L712.0 117.1 L714.0 116.8 L716.0 116.8 L718.0 117.1 L720.0 117.7 L722.0 118.1 L724.0 118.9 L726.0 120.0 L728.0 121.3 L730.0 122.3 L732.0 123.1 L734.0 124.2 L736.0 124.8 L738.0 125.4 L740.0 126.3 L742.0 126.8 L744.0 127.6 L746.0 128.5 L748.0 129.3 L750.0 130.1 L752.0 131.0 L754.0 131.8 L756.0 132.8 L758.0 133.5 L760.0 134.0 L762.0 134.6 L764.0 135.1 L766.0 135.3 L768.0 135.6 L770.0 136.2 L772.0 136.5 L774.0 136.4 L776.0 136.1 L778.0 135.7 L780.0 135.2 L782.0 134.9 L784.0 134.3 L786.0 133.9 L788.0 133.1 L790.0 132.1 L792.0 131.2 L794.0 130.5 L796.0 129.9 L798.0 129.4 L800.0 128.9 L802.0 128.4 L804.0 128.0 L806.0 127.4 L808.0 126.9 L810.0 126.4 L812.0 125.8 L814.0 125.5 L816.0 125.2 L818.0 125.6 L820.0 126.1 L822.0 126.4 L824.0 126.5 L826.0 126.4 L828.0 126.7" fill="none" stroke="#56d4bb" stroke-width="1.75" stroke-linejoin="round" stroke-linecap="round"/><g class="beam"><rect x="504" y="72" width="44" height="140" fill="url(#hdwtrail)"/><path d="M548 72V212" stroke="#56d4bb" stroke-width="1.25" stroke-opacity=".7"/></g></g><g font-size="10" fill="#8b949e" letter-spacing=".04em"><path d="M686 59.5h12" stroke="#6e7681" stroke-width="1.5"/><text x="703" y="63">raw</text><path d="M744 59.5h12" stroke="#56d4bb" stroke-width="2"/><text x="761" y="63">filtered</text></g></g>
</svg>
